<?xml version="1.0" encoding="UTF-8"?>
<svg version="1.1" xmlns="http://www.w3.org/2000/svg" width="1216" height="417">
<path d="M0 0 C0.87325308 -0.00382555 1.74650616 -0.00765109 2.64622146 -0.01159257 C5.54788651 -0.02184256 8.44935072 -0.0179458 11.35102844 -0.01396179 C13.44111818 -0.01831254 15.53120632 -0.02349689 17.62129211 -0.02944946 C23.28009053 -0.0428075 28.93882202 -0.04342199 34.59763312 -0.04088616 C39.32461896 -0.0398149 44.05159134 -0.04470349 48.77857429 -0.04949158 C59.92724768 -0.06057439 71.07588737 -0.0610302 82.2245636 -0.05497742 C93.72572948 -0.04892942 105.22677327 -0.06127244 116.72791833 -0.08254749 C126.60837448 -0.10015241 136.48879173 -0.10616684 146.36926299 -0.10290974 C152.26812775 -0.10109595 158.16690529 -0.10374329 164.06575584 -0.11762428 C169.60865764 -0.13018091 175.15136848 -0.128279 180.69426727 -0.11521339 C182.72841519 -0.11284385 184.76257646 -0.11559578 186.79670906 -0.12383652 C189.5728659 -0.13427296 192.3483782 -0.12622839 195.12451172 -0.11352539 C196.33224551 -0.12458682 196.33224551 -0.12458682 197.56437796 -0.13587171 C203.86221948 -0.07522481 207.89294665 1.50173308 212.6842804 5.76069641 C217.29279398 11.02756908 216.24925842 17.6287981 215.8717804 24.26069641 C215.39439361 28.15935516 214.73891275 32.02602324 214.07978821 35.89741516 C213.15584488 41.34200429 212.43248777 46.76733678 211.8717804 52.26069641 C211.20159479 58.63838278 210.39707251 64.98273641 209.4342804 71.32319641 C209.32406555 72.08438782 209.21385071 72.84557922 209.10029602 73.62983704 C206.75069595 88.60689668 206.75069595 88.60689668 201.0592804 93.19819641 C200.09054993 94.01610657 200.09054993 94.01610657 199.10224915 94.85054016 C194.4075232 97.81865937 189.89644982 98.51032149 184.41770935 98.50120544 C183.1389241 98.50395477 181.86013885 98.5067041 180.54260254 98.50953674 C179.13816738 98.50245983 177.73373319 98.49519023 176.32929993 98.48774719 C174.84074918 98.48718265 173.35219788 98.48750048 171.86364746 98.4886322 C167.8330905 98.48920504 163.80265305 98.4774619 159.77212381 98.46348429 C155.55607112 98.45096544 151.34001556 98.44980552 147.12394714 98.44743347 C139.14490316 98.4412221 131.16591411 98.42481591 123.1868943 98.40473449 C114.10108327 98.38236484 105.01526959 98.37137938 95.92943788 98.36134362 C77.24352093 98.34044938 58.55765508 98.30528006 39.8717804 98.26069641 C39.80498581 99.01174023 39.73819122 99.76278404 39.66937256 100.53658676 C39.58075455 101.52406528 39.49213654 102.51154381 39.40083313 103.52894592 C39.31341354 104.50686474 39.22599396 105.48478355 39.13592529 106.49233627 C38.82525621 109.74829133 38.40567491 112.97736695 37.9342804 116.21382141 C37.76154602 117.41007141 37.58881165 118.60632141 37.4108429 119.83882141 C37.14400696 121.65639954 37.14400696 121.65639954 36.8717804 123.51069641 C36.60494446 125.35147766 36.60494446 125.35147766 36.3327179 127.22944641 C36.00200119 129.50991087 35.67012329 131.79020751 35.33662415 134.07026672 C34.84184385 137.46616426 34.35653161 140.86335435 33.8717804 144.26069641 C34.49131781 144.25793103 35.11085522 144.25516565 35.74916649 144.25231647 C50.85746749 144.18592419 65.96572342 144.13635162 81.07413292 144.1052599 C88.38059621 144.08982266 95.68696184 144.06879369 102.99336243 144.03437805 C109.36520063 144.00437895 115.73696805 143.98509858 122.10887492 143.97843093 C125.47953154 143.97453636 128.84998579 143.96545017 132.22057724 143.94350624 C135.99294152 143.92164734 139.76489006 143.91873311 143.53730774 143.92012024 C144.64214508 143.90933441 145.74698242 143.89854858 146.88529968 143.88743591 C159.29023469 143.93661324 170.6995509 147.71669139 180.0124054 156.21382141 C181.77127327 158.15622332 183.34107679 160.13494716 184.8717804 162.26069641 C185.57754211 163.20042297 185.57754211 163.20042297 186.29756165 164.15913391 C194.21301278 175.60034646 193.24514092 187.78011974 191.4342804 200.88569641 C191.23221985 202.40163391 191.23221985 202.40163391 191.02607727 203.94819641 C190.38186048 208.73739834 189.66653919 213.49214363 188.8717804 218.26069641 C101.7517804 218.26069641 14.6317804 218.26069641 -75.1282196 218.26069641 C-80.71990066 204.28149377 -79.61027421 193.53929767 -76.98368835 179.22554016 C-75.97526233 173.61823569 -75.30288126 167.97880403 -74.6282196 162.32319641 C-73.63240214 154.04575129 -72.50215047 145.81089787 -71.13017273 137.58711243 C-70.40021745 133.1786463 -69.82761518 128.77873713 -69.35624695 124.3351593 C-69.05688733 121.61175597 -68.66014451 118.9074596 -68.2532196 116.19819641 C-67.30110625 109.66740407 -66.4896382 103.12432892 -65.6907196 96.57319641 C-64.69335636 88.44928821 -63.58685394 80.35957006 -62.24906921 72.28462219 C-61.57026687 68.16629203 -60.96134013 64.0517309 -60.4485321 59.90913391 C-58.22298505 42.1222314 -54.26454886 26.20408808 -39.7532196 14.40132141 C-27.70306305 5.20471119 -15.25385443 -0.07220022 0 0 Z " fill="#FE4503" transform="translate(107.12821960449219,27.739303588867188)"/>
<path d="M0 0 C1.19569107 -0.00428513 2.39138214 -0.00857025 3.62330627 -0.01298523 C6.1473833 -0.01871824 8.67147684 -0.0192364 11.19555664 -0.01489258 C15.04927851 -0.01173279 18.90223234 -0.0352054 22.75585938 -0.06054688 C25.21223862 -0.06282003 27.66861992 -0.06352329 30.125 -0.0625 C31.27310654 -0.07170975 32.42121307 -0.08091949 33.60411072 -0.09040833 C40.97931805 -0.0479216 47.5405653 0.52234101 53.06640625 5.98828125 C58.11241384 12.36643484 56.05507634 22.38586581 55.23046875 29.9609375 C54.75479739 33.41930223 54.20407828 36.85768247 53.62890625 40.30078125 C52.49840033 47.81257266 51.4936477 55.33245971 50.57226562 62.87231445 C49.47556216 71.84489542 48.29032905 80.78078211 46.82885742 89.70117188 C45.6005322 97.28023383 44.54872208 104.88200308 43.50390625 112.48828125 C43.33318604 113.73053467 43.16246582 114.97278809 42.98657227 116.25268555 C42.16541881 122.26480409 41.36922274 128.27820654 40.62890625 134.30078125 C39.56628936 142.59129715 38.4071706 150.8657244 37.21166992 159.13793945 C35.57183942 170.48593591 34.00530314 181.83429294 32.66821289 193.22241211 C31.89940879 199.63406679 30.84947351 205.95980417 29.62890625 212.30078125 C33.38043557 212.30704274 37.12812057 212.24748086 40.87890625 212.17578125 C41.94238281 212.17835938 43.00585938 212.1809375 44.1015625 212.18359375 C47.05758278 212.10922846 49.74712057 211.96812718 52.62890625 211.30078125 C55.30439661 208.64001801 55.30439661 208.64001801 56.62890625 205.30078125 C57.63731337 203.93733593 58.65676874 202.58193049 59.69140625 201.23828125 C61.30066481 199.12062509 62.73861153 197.10998946 64.06640625 194.80078125 C66.04902335 191.62859389 68.47828587 189.01274532 71.0078125 186.265625 C72.60450744 184.33035378 73.53429593 182.54515667 74.62890625 180.30078125 C75.78639032 178.61313062 76.97770842 176.948468 78.19140625 175.30078125 C79.26455078 173.84285156 79.26455078 173.84285156 80.359375 172.35546875 C81.10832031 171.34742188 81.85726562 170.339375 82.62890625 169.30078125 C83.34691406 168.33398438 84.06492187 167.3671875 84.8046875 166.37109375 C87.94451768 162.16606364 91.09965051 157.97465219 94.31640625 153.828125 C94.7645166 153.24981934 95.21262695 152.67151367 95.67431641 152.07568359 C96.93505954 150.45195015 98.19983672 148.83135127 99.46484375 147.2109375 C101.37546485 144.64160046 103.00493023 142.0542825 104.62890625 139.30078125 C105.14195312 138.63691406 105.655 137.97304687 106.18359375 137.2890625 C107.76764421 135.10992282 108.70123187 132.96401544 109.75390625 130.48828125 C112.85994719 124.11619119 117.63024544 120.22013844 123.97265625 117.17578125 C131.07908324 114.83484059 138.47725343 115.12566466 145.87890625 115.09765625 C147.05098633 115.09195618 148.22306641 115.0862561 149.43066406 115.0803833 C151.90168361 115.0709648 154.37271553 115.06441189 156.84375 115.06054688 C160.61610741 115.05081427 164.38792586 115.01974928 168.16015625 114.98828125 C170.56640303 114.98175298 172.97265369 114.97650182 175.37890625 114.97265625 C176.50200195 114.96030945 177.62509766 114.94796265 178.78222656 114.9352417 C185.52522066 114.95436876 191.00776465 115.25609941 196.37109375 119.765625 C200.18294566 124.72103248 201.1371086 128.0753025 200.62890625 134.30078125 C199.31640625 136.73828125 199.31640625 136.73828125 197.62890625 139.30078125 C197.01015625 140.90953125 197.01015625 140.90953125 196.37890625 142.55078125 C194.72380155 146.57529898 192.10503046 149.62344985 189.38671875 152.984375 C187.22490267 155.83316819 185.6134519 158.82497645 183.94140625 161.9765625 C181.10866215 166.99288017 177.60491641 171.59533484 174.2109375 176.2421875 C171.81307151 179.5401755 169.69946232 182.86128032 167.71484375 186.43359375 C166.03167339 189.32767804 164.13840162 192.07387123 162.265625 194.84765625 C160.51303684 197.47444709 158.81722639 200.13226642 157.12890625 202.80078125 C154.03532285 207.68466458 150.85633151 212.5046075 147.62890625 217.30078125 C146.96890625 218.29078125 146.30890625 219.28078125 145.62890625 220.30078125 C142.90489744 220.59510969 140.40802658 220.69193086 137.68173218 220.6615448 C136.8510622 220.66410807 136.02039222 220.66667135 135.16455042 220.6693123 C132.36520297 220.6742762 129.56638808 220.6577146 126.76708984 220.64135742 C124.7668204 220.64051171 122.76655003 220.64098519 120.76628113 220.64268494 C115.32227739 220.6435485 109.87847046 220.62586436 104.43451262 220.60496306 C98.75034797 220.58625636 93.06617921 220.58445058 87.38198853 220.58088684 C76.61201578 220.57154868 65.84213399 220.54691096 55.07220137 220.51683837 C42.81363438 220.48334941 30.55506314 220.46682222 18.29646182 220.45175207 C-6.9261072 220.42036293 -32.14859539 220.36756808 -57.37109375 220.30078125 C-57.05128595 217.57401926 -56.73121586 214.84728849 -56.41099548 212.12057495 C-56.32095418 211.35262698 -56.23091289 210.58467901 -56.13814306 209.79345989 C-55.51897107 204.52348436 -54.87697312 199.25737858 -54.1875 193.99609375 C-54.08741638 193.22778732 -53.98733276 192.4594809 -53.88421631 191.66789246 C-53.56887711 189.25365127 -53.25145297 186.83969184 -52.93359375 184.42578125 C-52.82437592 183.59283539 -52.71515808 182.75988953 -52.60263062 181.90170288 C-51.31146581 172.07081768 -49.96397537 162.26141577 -48.32666016 152.48120117 C-47.3101366 146.28304779 -46.68188145 140.0619788 -46.07177734 133.8125 C-45.59028057 129.00361428 -44.94306394 124.31371221 -43.8359375 119.6015625 C-43.14746624 116.19391906 -42.77756439 112.75090408 -42.37109375 109.30078125 C-40.89426984 97.04557143 -39.40473449 84.80751723 -37.37353516 72.62963867 C-36.64327394 68.22037179 -36.07057766 63.81965465 -35.59912109 59.37524414 C-35.29976147 56.65184081 -34.90301866 53.94754444 -34.49609375 51.23828125 C-33.81074179 46.66926819 -33.2398845 42.11750473 -32.78515625 37.51953125 C-30.20543806 12.43664207 -30.20543806 12.43664207 -22.859375 4.7109375 C-21.37109375 3.61328125 -21.37109375 3.61328125 -18.37109375 2.30078125 C-17.17601196 1.7744812 -17.17601196 1.7744812 -15.95678711 1.23754883 C-10.64863585 -0.14921337 -5.46456211 -0.00433033 0 0 Z " fill="#FE4503" transform="translate(406.37109375,25.69921875)"/>
<path d="M0 0 C1.18291626 -0.00478363 2.36583252 -0.00956726 3.58459473 -0.01449585 C6.07219787 -0.01788076 8.55984635 -0.00877786 11.04736328 0.01220703 C14.83337536 0.03898911 18.61642279 0.01240708 22.40234375 -0.01953125 C24.83073565 -0.01622691 27.25912571 -0.00982018 29.6875 0 C30.80757446 -0.01012115 31.92764893 -0.02024231 33.08166504 -0.03067017 C40.38585913 0.07710905 46.32688972 1.31199284 52.34375 5.6640625 C55.92985965 10.45941508 56.56152147 16.79047694 55.890625 22.5625 C55.6330669 24.05610102 55.36689814 25.54823378 55.09375 27.0390625 C53.82023298 34.50043437 52.75433453 41.96226585 51.84375 49.4765625 C50.8681198 57.46225264 49.86286742 65.44196269 48.78125 73.4140625 C48.66652344 74.2697583 48.55179688 75.1254541 48.43359375 76.00708008 C47.5353935 82.58218663 46.46143592 89.12295553 45.34375 95.6640625 C46.21246231 95.67286186 46.21246231 95.67286186 47.09872437 95.68183899 C53.16687519 95.74614087 59.23451358 95.83065208 65.30224609 95.92651367 C67.56194267 95.95961627 69.82171901 95.98769309 72.08154297 96.01049805 C75.3437679 96.04431467 78.60527139 96.09664366 81.8671875 96.15234375 C83.36468033 96.16192863 83.36468033 96.16192863 84.89242554 96.17170715 C92.25043759 96.32338334 100.29284721 96.76570485 105.84375 102.0390625 C110.48758705 110.16577733 109.39697511 117.34824932 108.03125 126.2890625 C107.7534515 128.15097387 107.47612179 130.01295524 107.19921875 131.875 C107.05661621 132.82729492 106.91401367 133.77958984 106.76708984 134.76074219 C106.34803865 137.63465036 105.95988504 140.51103336 105.58203125 143.390625 C105.45803955 144.31665527 105.33404785 145.24268555 105.20629883 146.19677734 C104.97183543 147.95406864 104.74339494 149.71217861 104.5222168 151.47119141 C102.53880265 166.03937555 102.53880265 166.03937555 97.28125 171.0390625 C89.52861247 176.7028039 80.72025459 177.09507664 71.4296875 176.95703125 C70.33403473 176.95278641 69.23838196 176.94854156 68.10952759 176.94416809 C64.64567401 176.9275145 61.18242464 176.88988708 57.71875 176.8515625 C55.35547721 176.83649846 52.99219521 176.82281308 50.62890625 176.81054688 C44.86698496 176.77765478 39.10541067 176.7275901 33.34375 176.6640625 C33.67375 177.6540625 34.00375 178.6440625 34.34375 179.6640625 C34.19775391 181.70117188 34.19775391 181.70117188 33.8203125 184.0078125 C33.68625 184.84183594 33.5521875 185.67585937 33.4140625 186.53515625 C33.26710938 187.40269531 33.12015625 188.27023438 32.96875 189.1640625 C32.75992188 190.46537109 32.75992188 190.46537109 32.546875 191.79296875 C31.98840916 195.20171779 31.43842129 198.38004862 30.34375 201.6640625 C2.29375 201.6640625 -25.75625 201.6640625 -54.65625 201.6640625 C-53.51855551 186.87403411 -53.51855551 186.87403411 -52.21875 179.7890625 C-51.94872531 178.23859288 -51.68052165 176.68780511 -51.4140625 175.13671875 C-51.28418945 174.38148926 -51.15431641 173.62625977 -51.02050781 172.84814453 C-49.39080817 163.0765004 -48.39753483 153.23303757 -47.40820312 143.3815918 C-46.9008416 138.50223205 -46.20755089 133.74594345 -45.12158203 128.95678711 C-44.6811327 126.78666138 -44.40200118 124.67104605 -44.18359375 122.46875 C-43.68416404 117.76011709 -43.00327144 113.09302602 -42.28125 108.4140625 C-42.01254816 106.64069656 -41.74433414 104.86725664 -41.4765625 103.09375 C-41.34024414 102.19237305 -41.20392578 101.29099609 -41.06347656 100.36230469 C-39.05355451 87.04476359 -37.28553576 73.72705616 -35.78344727 60.34204102 C-34.89431904 52.5027097 -33.88302876 44.69052617 -32.70214844 36.88964844 C-32.12152998 33.04436393 -31.58995422 29.22414585 -31.26953125 25.34765625 C-30.4875191 16.88006229 -29.07682 11.44432384 -22.65625 5.6640625 C-15.34790619 0.7003483 -8.66445428 -0.07829326 0 0 Z " fill="#FE4503" transform="translate(835.65625,44.3359375)"/>
<path d="M0 0 C1.46775434 -0.0046357 2.93550749 -0.00966135 4.40325928 -0.01504517 C8.37253967 -0.02809862 12.3418032 -0.03460023 16.31110168 -0.03905582 C18.79709263 -0.04199793 21.28307909 -0.04610482 23.76906776 -0.05056 C31.56506616 -0.06421622 39.36105414 -0.07389209 47.15706366 -0.07776189 C56.12327017 -0.08223844 65.08932391 -0.09977551 74.055484 -0.12876248 C81.0086603 -0.15045302 87.96179386 -0.16047008 94.9150036 -0.16180301 C99.05746723 -0.16284575 103.1997869 -0.16863952 107.34221458 -0.18662262 C111.2435844 -0.20323154 115.144704 -0.20519745 119.0460968 -0.19648361 C120.46776314 -0.19572005 121.88944367 -0.19996468 123.31107521 -0.20994186 C136.60014484 -0.29764255 149.33384068 0.63200298 159.43676758 10.16113281 C160.10439816 11.49398375 160.77123398 12.82723355 161.43676758 14.16113281 C162.42676758 14.49113281 163.41676758 14.82113281 164.43676758 15.16113281 C168.95789242 21.97546358 168.99319695 27.95918773 168.81176758 35.97363281 C168.79742676 37.16472656 168.78308594 38.35582031 168.76831055 39.58300781 C168.53504906 52.42448437 167.45942268 65.1404515 164.90161133 77.73925781 C163.56400907 84.70827796 162.83381085 91.79682462 161.93676758 98.83300781 C161.43676758 102.16113281 161.43676758 102.16113281 160.43676758 105.16113281 C132.38676758 105.16113281 104.33676758 105.16113281 75.43676758 105.16113281 C77.43676758 87.16113281 77.43676758 87.16113281 78.43676758 79.16113281 C49.72676758 79.65613281 49.72676758 79.65613281 20.43676758 80.16113281 C20.10676758 82.80113281 19.77676758 85.44113281 19.43676758 88.16113281 C19.10792945 90.78669972 18.77471969 93.41172345 18.43676758 96.03613281 C18.27176758 97.33292969 18.10676758 98.62972656 17.93676758 99.96582031 C17.43676758 103.16113281 17.43676758 103.16113281 16.43676758 105.16113281 C-11.61323242 105.16113281 -39.66323242 105.16113281 -68.56323242 105.16113281 C-67.43594134 90.50634878 -67.43594134 90.50634878 -66.18823242 83.84863281 C-64.89810487 76.56001129 -63.89772907 69.2580442 -63.00073242 61.91113281 C-62.87239014 60.88028564 -62.74404785 59.84943848 -62.61181641 58.78735352 C-62.08457323 54.53216281 -61.56609971 50.27942464 -61.14135742 46.01269531 C-59.64409333 32.68704487 -54.87551782 21.02877614 -44.56323242 12.16113281 C-30.00203809 1.60562019 -17.53581677 0.01295936 0 0 Z " fill="#FE4603" transform="translate(1047.563232421875,140.8388671875)"/>
<path d="M0 0 C1.51438911 -0.00855011 1.51438911 -0.00855011 3.05937195 -0.01727295 C5.1882524 -0.02668527 7.31714718 -0.03324187 9.44604492 -0.03710938 C12.67848463 -0.04681276 15.91028734 -0.07787167 19.14257812 -0.109375 C21.22004834 -0.11590657 23.29752307 -0.12115644 25.375 -0.125 C26.32949539 -0.1373468 27.28399078 -0.1496936 28.26741028 -0.16241455 C34.91255734 -0.14068158 42.88447582 0.15233732 48.12963867 4.72137451 C52.54303252 9.88618847 52.59000451 16.53864001 52.22875977 23.05053711 C51.92249021 26.09068675 51.54584386 29.11262757 51.13671875 32.140625 C50.99758057 33.23383057 50.85844238 34.32703613 50.71508789 35.45336914 C49.76136299 42.80354497 48.65416682 50.12357559 47.44458008 57.43554688 C46.44168781 63.57586553 45.73531464 69.72574668 45.08569336 75.91210938 C44.43089199 82.05727338 43.50184264 88.12415104 42.38671875 94.203125 C41.72671875 97.833125 41.06671875 101.463125 40.38671875 105.203125 C12.33671875 105.203125 -15.71328125 105.203125 -44.61328125 105.203125 C-44.01232808 97.39073374 -43.39669819 89.97860024 -42.05078125 82.328125 C-41.29377735 78.01848419 -40.6059771 73.95788737 -40.6484375 69.5703125 C-40.60888124 65.78170224 -39.6772348 62.83077475 -38.61328125 59.203125 C-38.17680931 56.29704862 -37.92950802 53.38013171 -37.67578125 50.453125 C-37.0197023 43.62479511 -36.18823981 36.85353948 -35.11328125 30.078125 C-34.99476807 29.32176758 -34.87625488 28.56541016 -34.75415039 27.78613281 C-31.96515276 10.60151469 -31.96515276 10.60151469 -25.61328125 5.203125 C-17.69065051 -0.08398558 -9.22091898 0.04079646 0 0 Z " fill="#FE4603" transform="translate(687.61328125,140.796875)"/>
<path d="M0 0 C6.88697607 0.29943374 11.30475102 3.32564582 17 7 C19.05989764 8.27504718 21.12254643 9.54565732 23.1875 10.8125 C24.28320312 11.48796875 25.37890625 12.1634375 26.5078125 12.859375 C39.50674109 20.8462238 52.61969967 28.66786573 66 36 C66 36.66 66 37.32 66 38 C66.66 38 67.32 38 68 38 C68.33 38.99 68.66 39.98 69 41 C69.99 41 70.98 41 72 41 C71.5359375 42.1446875 71.5359375 42.1446875 71.0625 43.3125 C70.32106407 45.18789677 69.63771783 47.08684652 69 49 C68.34 49 67.68 49 67 49 C66.59007812 49.84304687 66.59007812 49.84304687 66.171875 50.703125 C62.87554562 57.16393058 58.9911579 63.1470235 54.5625 68.87890625 C52.11759035 72.19787111 49.98286716 75.70501084 47.79296875 79.1953125 C44.57294143 84.23230512 41.11201318 89.10402625 37.58984375 93.93359375 C35.51696337 96.77984234 33.5999632 99.61511272 31.875 102.6875 C30 106 30 106 28.25 108.25 C26.7093809 110.04843652 26.7093809 110.04843652 27 113 C24.74365725 114.42066025 23.4472216 115.03973572 20.7578125 114.80078125 C17.25259928 113.78297854 14.62998191 112.09772688 11.5625 110.125 C7.46068948 107.50022869 3.39264343 105.10687875 -1 103 C-1 102.34 -1 101.68 -1 101 C-2.11375 100.814375 -2.11375 100.814375 -3.25 100.625 C-5.80141485 100.04513299 -7.7267573 99.26291261 -10 98 C-10 97.34 -10 96.68 -10 96 C-10.515625 95.9175 -11.03125 95.835 -11.5625 95.75 C-15.04455732 94.67859775 -17.87200885 92.86476395 -21 91 C-21 90.34 -21 89.68 -21 89 C-21.85207031 88.75378906 -22.70414063 88.50757812 -23.58203125 88.25390625 C-27.92146478 86.66195406 -31.53115293 84.32040136 -35.40820312 81.83398438 C-37.9365739 80.23041041 -40.14397002 78.95200999 -43 78 C-43 76.68 -43 75.36 -43 74 C-39.7 73.01 -36.4 72.02 -33 71 C-35.475 71.495 -35.475 71.495 -38 72 C-39.60303627 72.06371368 -41.20837672 72.08644214 -42.8125 72.0625 C-43.60269531 72.05347656 -44.39289062 72.04445313 -45.20703125 72.03515625 C-45.79871094 72.02355469 -46.39039063 72.01195313 -47 72 C-43.38658969 66.29568372 -39.74564703 60.61847054 -36 55 C-34.89431599 53.25095829 -33.79033376 51.50084029 -32.6875 49.75 C-29.86525209 45.30391094 -26.92781874 40.96651233 -23.88671875 36.66796875 C-20.21459743 31.47530031 -16.60525867 26.23920158 -13 21 C-12.45214844 20.2059375 -11.90429688 19.411875 -11.33984375 18.59375 C-7.25111161 12.5751363 -3.61118883 6.31423846 0 0 Z M46 46 C45.34 46.66 44.68 47.32 44 48 C45.98 47.67 47.96 47.34 50 47 C48.10820797 46.3185177 48.10820797 46.3185177 46 46 Z M29.890625 50.99609375 C28.75947266 51.33930664 28.75947266 51.33930664 27.60546875 51.68945312 C26.82816406 51.93630859 26.05085937 52.18316406 25.25 52.4375 C24.45722656 52.68048828 23.66445313 52.92347656 22.84765625 53.17382812 C20.89564654 53.77354195 18.94743117 54.38558121 17 55 C17 55.33 17 55.66 17 56 C24.35012956 55.42351925 31.01424576 53.28953836 38 51 C34.87820592 49.99306838 33.01030331 50.02710276 29.890625 50.99609375 Z M0.1875 59.25 C-6.83741686 61.63267534 -13.89801856 63.85623157 -21 66 C-21 66.33 -21 66.66 -21 67 C-13.84572565 66.47902207 -7.68842676 64.80995512 -0.9375 62.4375 C0.02349609 62.10814453 0.98449219 61.77878906 1.97460938 61.43945312 C4.31939027 60.63452834 6.66091146 59.82128851 9 59 C9 58.34 9 57.68 9 57 C5.88630184 57 3.10414228 58.24680286 0.1875 59.25 Z M-31 70 C-27.535 69.505 -27.535 69.505 -24 69 C-27.48581856 67.7979936 -27.67992344 67.78661563 -31 70 Z " fill="#F9BB07" transform="translate(684,14)"/>
<path d="M0 0 C86.46 0 172.92 0 262 0 C262.9844729 3.9378916 262.9227253 5.42528964 262.125 9.25 C261.44606766 12.55859987 260.87286307 15.839035 260.46435547 19.19042969 C260.31111816 20.44758789 260.15788086 21.70474609 260 23 C230.8866324 23.09134129 201.77327883 23.16208555 172.65979646 23.20426132 C169.21907956 23.20926387 165.77836295 23.21444118 162.33764648 23.21972656 C161.31021251 23.22130043 161.31021251 23.22130043 160.26202229 23.22290608 C149.18578288 23.24028941 138.10962691 23.2718156 127.03343692 23.30861118 C115.65981031 23.34607845 104.28624537 23.36794883 92.91255313 23.37635398 C86.52764986 23.38156321 80.14293553 23.39378481 73.75809288 23.42292023 C67.74416394 23.45013985 61.73050119 23.45843163 55.71651649 23.45243073 C53.51353126 23.45352802 51.31053681 23.46144257 49.10760498 23.4768219 C34.30378866 23.57507223 21.83566816 22.95087854 10 13 C6.4688097 9.49360739 3.07067866 5.9232888 0 2 C0 1.34 0 0.68 0 0 Z " fill="#FE4504" transform="translate(33,247)"/>
<path d="M0 0 C75.57 0 151.14 0 229 0 C230 4 230 4 227 23 C151.43 23 75.86 23 -2 23 C-2 14.05555556 -2 14.05555556 -1 9.25 C-0.32800544 5.98335977 0 3.37561511 0 0 Z " fill="#FE4503" transform="translate(978,247)"/>
<path d="M0 0 C-1.485 9.405 -1.485 9.405 -3 19 C-92.43 19 -181.86 19 -274 19 C-271.61542929 4.69257573 -271.61542929 4.69257573 -268.69183373 1.19552422 C-265.02501887 -1.39560863 -260.72103248 -0.95415827 -256.39645386 -0.88647461 C-255.31624061 -0.8972447 -254.23602736 -0.90801479 -253.12308037 -0.91911125 C-249.49658469 -0.94673619 -245.87211438 -0.92438976 -242.24560547 -0.90234375 C-239.64877071 -0.91186679 -237.05194562 -0.92444809 -234.45513916 -0.93986511 C-228.13063762 -0.97185716 -221.8066745 -0.96693099 -215.48213588 -0.95001692 C-208.11965264 -0.93194639 -200.75743063 -0.95249463 -193.39497878 -0.97520828 C-180.26148394 -1.01461127 -167.12816968 -1.02210164 -153.99462891 -1.01025391 C-141.24455799 -0.99880693 -128.49467645 -1.00483314 -115.74462891 -1.03271484 C-114.5662934 -1.03528485 -114.5662934 -1.03528485 -113.36415313 -1.03790677 C-110.2067502 -1.04484673 -107.04934745 -1.05186325 -103.89194494 -1.05899245 C-89.55037541 -1.09104649 -75.20878332 -1.10952983 -60.8671875 -1.125 C-60.13814294 -1.12582754 -59.40909837 -1.12665507 -58.65796155 -1.12750769 C-49.55124175 -1.13772315 -40.44456095 -1.14172522 -31.33783722 -1.1347599 C-28.79770308 -1.13347246 -26.25756747 -1.13386938 -23.71743393 -1.13603783 C-20.26145918 -1.13857803 -16.80554884 -1.13488072 -13.34957886 -1.12939453 C-12.33451763 -1.13142348 -11.3194564 -1.13345243 -10.27363575 -1.13554287 C-9.35112966 -1.13271832 -8.42862358 -1.12989378 -7.47816277 -1.12698364 C-6.68004295 -1.12660662 -5.88192314 -1.12622959 -5.05961788 -1.12584114 C-3 -1 -3 -1 0 0 Z " fill="#FE4503" transform="translate(286,322)"/>
<path d="M0 0 C0.88422337 0.00291284 1.76844674 0.00582568 2.67946476 0.00882679 C4.0773213 0.00754515 4.0773213 0.00754515 5.50341737 0.00623763 C8.65118445 0.00457997 11.79889918 0.01010884 14.94666141 0.01555592 C17.19308576 0.01583775 19.43951019 0.01568013 21.68593448 0.01511341 C27.80552281 0.0148253 33.92509173 0.02072425 40.04467553 0.02768737 C46.43220479 0.03391862 52.81973444 0.03452453 59.20726627 0.03571278 C69.93518072 0.03847249 80.66308663 0.04472802 91.39099735 0.05364186 C102.4427548 0.06281525 113.4945103 0.06989644 124.54627079 0.07414967 C125.22704306 0.07441239 125.90781532 0.07467512 126.60921706 0.0749458 C130.02431465 0.0762508 133.43941227 0.07751452 136.85450989 0.0787577 C165.20416103 0.08913119 193.55380439 0.10682439 221.90344852 0.12908131 C222.79060654 9.04009077 220.63038616 13.18443098 216.90344852 22.12908131 C142.32344852 22.12908131 67.74344852 22.12908131 -9.09655148 22.12908131 C-9.09655148 17.06319389 -8.88195239 12.70357804 -8.15905148 7.75408131 C-7.98502804 6.52947193 -7.8110046 5.30486256 -7.63170773 4.04314381 C-6.70155342 -1.02178404 -4.75132165 0.0118815 0 0 Z " fill="#FE4503" transform="translate(982.0965514779091,270.8709186911583)"/>
<path d="M0 0 C0.81981619 0.00037972 1.63963239 0.00075944 2.48429149 0.00115067 C3.42679935 -0.00084038 4.3693072 -0.00283143 5.3403759 -0.00488281 C6.9118407 -0.00051355 6.9118407 -0.00051355 8.51505226 0.00394398 C9.61846582 0.00308955 10.72187938 0.00223513 11.85872972 0.00135481 C15.58691431 -0.00030323 19.31505474 0.00522667 23.04323524 0.01067311 C25.70344848 0.01095493 28.36365894 0.01084145 31.02387184 0.0102306 C36.76698023 0.00970517 42.51007729 0.01285391 48.25318283 0.01846844 C56.55684175 0.02658093 64.86049517 0.0291984 73.16415762 0.03045643 C86.63492098 0.03264735 100.10567829 0.0393085 113.57643837 0.04875904 C126.66530525 0.05793214 139.75417049 0.06501347 152.84303993 0.06926686 C153.64926601 0.06952958 154.45549209 0.0697923 155.28614927 0.07006299 C159.33057786 0.07136798 163.37500647 0.0726317 167.41943508 0.07387489 C200.99447897 0.08424874 234.56951555 0.10186813 268.1445536 0.1241985 C267.83653921 2.74979693 267.52335178 5.37459655 267.2070536 7.9991985 C267.12004188 8.74556568 267.03303016 9.49193287 266.94338173 10.26091725 C266.25783485 15.897636 266.25783485 15.897636 265.1445536 18.1241985 C176.0445536 18.1241985 86.9445536 18.1241985 -4.8554464 18.1241985 C-2.744803 0.18372959 -2.744803 0.18372959 0 0 Z " fill="#FE4503" transform="translate(13.85544639825821,346.8758015036583)"/>
<path d="M0 0 C66.33 0 132.66 0 201 0 C200.0467669 4.76616551 199.67490349 5.81641764 196.75 9.25 C192.98134424 13.68567448 191.00766641 17.58620047 188 23 C124.97 23 61.94 23 -3 23 C-3 13.98540146 -3 13.98540146 -2.0625 9.25 C-1.88847656 8.34765625 -1.71445312 7.4453125 -1.53515625 6.515625 C-1.07086544 4.3331193 -0.54118047 2.16472187 0 0 Z " fill="#FE4504" transform="translate(349,247)"/>
<path d="M0 0 C2.95850455 -0.29412012 5.70764757 -0.39092023 8.66848755 -0.36076355 C9.57674502 -0.36332682 10.4850025 -0.3658901 11.42078292 -0.36853105 C14.48268479 -0.37349634 17.54410014 -0.35693086 20.60595703 -0.34057617 C22.79341622 -0.33973049 24.98087627 -0.34020388 27.16833496 -0.34190369 C33.12264605 -0.34276737 39.07677725 -0.32508126 45.03104639 -0.30418181 C51.24772902 -0.28547711 57.4644154 -0.28366948 63.68112183 -0.28010559 C74.12061634 -0.27182907 84.56004901 -0.25306759 94.99951172 -0.22631836 C105.75341459 -0.19879204 116.50729949 -0.17755149 127.26123047 -0.16479492 C128.25511183 -0.16361267 128.25511183 -0.16361267 129.26907159 -0.16240653 C132.59299403 -0.15849149 135.9169166 -0.1547071 139.24083924 -0.15097082 C166.82727233 -0.11958035 194.41363151 -0.06678435 222 0 C218.09790175 7.97197334 212.94026015 12.22616009 205 16 C204.31582504 16.35620422 203.63165009 16.71240845 202.92674255 17.07940674 C192.9132289 21.55076095 181.89392467 20.60523404 171.16015625 20.609375 C168.8692004 20.62447924 166.57825512 20.64126811 164.287323 20.65962219 C158.14869109 20.70379677 152.01020475 20.72360293 145.87144089 20.73842239 C139.50934964 20.75776052 133.14739975 20.79925165 126.78540039 20.83764648 C111.52366207 20.92424494 96.2619373 20.96756801 81 21 C79.26676735 21.00393139 79.26676735 21.00393139 77.4985199 21.0079422 C50.66556376 21.06879457 23.83292791 21.07434905 -3 21 C-4.23846261 17.28461216 -3.71757531 14.28625218 -3.1875 10.5 C-3.10435547 9.82324219 -3.02121094 9.14648438 -2.93554688 8.44921875 C-2.46413628 4.96009217 -1.98618865 2.97928297 0 0 Z " fill="#FE4503" transform="translate(973,296)"/>
<path d="M0 0 C89.1 0 178.2 0 270 0 C268.54053518 4.37839447 267.10292779 7.96938841 265 12 C264.34 13.32 263.68 14.64 263 16 C175.55 16.33 88.1 16.66 -2 17 C-2 9 -2 9 0 0 Z " fill="#FE4503" transform="translate(8,372)"/>
<path d="M0 0 C0.74414923 0.00291284 1.48829846 0.00582568 2.25499767 0.00882679 C3.43234239 0.00754515 3.43234239 0.00754515 4.63347185 0.00623763 C7.28373924 0.00458044 9.93394441 0.01010807 12.58420604 0.01555592 C14.47595509 0.01583776 16.36770425 0.01568011 18.25945324 0.01511341 C23.41213175 0.01482534 28.5647872 0.02072366 33.71746033 0.02768737 C39.09600961 0.03391927 44.47455936 0.03452458 49.85311168 0.03571278 C60.0457989 0.03882658 70.23847544 0.04704062 80.43115795 0.05706227 C92.03192634 0.06822189 103.63269522 0.07373347 115.23346764 0.0787577 C139.10421123 0.0892232 162.97494535 0.10682358 186.84568065 0.12908131 C190.53485059 7.22088371 191.4695203 12.87211919 192.84568065 21.12908131 C126.51568065 21.12908131 60.18568065 21.12908131 -8.15431935 21.12908131 C-9.1623824 18.10489214 -9.1727762 17.15502011 -8.63088185 14.15251881 C-8.49681935 13.39970631 -8.36275685 12.64689381 -8.22463185 11.87126881 C-8.07767872 11.09009693 -7.9307256 10.30892506 -7.77931935 9.50408131 C-7.6401006 8.71517506 -7.50088185 7.92626881 -7.35744435 7.11345631 C-6.06514516 0.0180023 -6.06514516 0.0180023 0 0 Z " fill="#FE4503" transform="translate(348.1543193459511,295.8709186911583)"/>
<path d="M0 0 C0.72858544 0.00291284 1.45717088 0.00582568 2.20783466 0.00882679 C2.97639693 0.00797237 3.7449592 0.00711794 4.53681123 0.00623763 C7.13180097 0.0045805 9.72672715 0.01010797 12.321711 0.01555592 C14.17405169 0.01583777 16.02639248 0.0156801 17.8787331 0.01511341 C22.92397722 0.01482534 27.96919779 0.02072358 33.01443642 0.02768737 C38.28087681 0.03391936 43.54731767 0.03452458 48.81376117 0.03571278 C58.79395269 0.03882655 68.77413332 0.04704056 78.75432003 0.05706227 C90.11325501 0.06822197 101.47219051 0.0737335 112.83112961 0.0787577 C136.20421683 0.08922314 159.57729436 0.10682347 182.95037311 0.12908131 C182.61988971 1.21584156 182.28940632 2.30260182 181.94890827 3.4222942 C180.93635447 7.18112167 180.89441545 9.7310581 181.32537311 13.56658131 C181.43623249 14.61716725 181.54709186 15.66775318 181.66131061 16.75017506 C181.75670124 17.53521412 181.85209186 18.32025318 181.95037311 19.12908131 C182.61037311 19.12908131 183.27037311 19.12908131 183.95037311 19.12908131 C183.95037311 20.11908131 183.95037311 21.10908131 183.95037311 22.12908131 C120.59037311 22.12908131 57.23037311 22.12908131 -8.04962689 22.12908131 C-8.04962689 17.06319389 -7.8350278 12.70357804 -7.11212689 7.75408131 C-6.93810345 6.52947193 -6.76408001 5.30486256 -6.58478314 4.04314381 C-5.72463385 -0.6405888 -4.45206203 0.01349472 0 0 Z " fill="#FE4503" transform="translate(351.04962688684464,270.8709186911583)"/>
<path d="M0 0 C75.57 0 151.14 0 229 0 C228 13 228 13 226 18 C150.76 18 75.52 18 -2 18 C-2 9 -2 9 0 0 Z " fill="#FE4503" transform="translate(965,347)"/>
<path d="M0 0 C84.81 0 169.62 0 257 0 C255.84576931 4.61692275 255.17177992 4.97646047 251.375 7.5 C250.11816406 8.35078125 250.11816406 8.35078125 248.8359375 9.21875 C247.43214844 10.10046875 247.43214844 10.10046875 246 11 C244.98746029 11.68640092 243.97492058 12.37280184 242.93169785 13.08000278 C238.44647015 15.61267029 234.31111838 15.55563289 229.25689697 15.50120544 C228.29339789 15.50673984 227.32989881 15.51227424 226.33720279 15.51797634 C223.11809187 15.53155808 219.89975957 15.51662686 216.68066406 15.50170898 C214.36925426 15.50549294 212.05784673 15.51099362 209.7464447 15.51808167 C203.47610011 15.5320402 197.20602977 15.52086484 190.93570042 15.50437045 C184.37743983 15.49052358 177.81919522 15.49697937 171.26092529 15.50050354 C160.25186913 15.5039351 149.24291606 15.48981897 138.23388672 15.46655273 C126.90409299 15.4426113 115.5744434 15.43555762 104.24462891 15.44604492 C90.58799597 15.45866338 76.93146447 15.45617298 63.27483368 15.44038582 C58.05796503 15.43461783 52.84114458 15.43471501 47.62427521 15.43945122 C41.4879735 15.44421093 35.35187216 15.43416104 29.2156086 15.41249657 C26.95928943 15.40691578 24.70295106 15.40647516 22.44663048 15.41144943 C19.37591819 15.41737198 16.30582483 15.40495556 13.23516846 15.38768005 C11.88387923 15.39669512 11.88387923 15.39669512 10.50529122 15.40589231 C9.68503701 15.39745237 8.8647828 15.38901243 8.01967239 15.38031673 C7.31073184 15.3792876 6.60179129 15.37825848 5.87136769 15.37719816 C3.40652278 14.88037706 2.54049776 13.95457207 1 12 C0 9 0 9 0 0 Z " fill="#FE4503" transform="translate(5,396)"/>
<path d="M0 0 C75.57 0 151.14 0 229 0 C228 14 228 14 227 16 C152.42 16 77.84 16 1 16 C-1 8 -1 8 0 0 Z " fill="#FE4503" transform="translate(962,372)"/>
<path d="M0 0 C72.27 0 144.54 0 219 0 C218.03904156 4.80479219 217.7015814 5.83181944 214.625 9.1875 C214.01914063 9.86167969 213.41328125 10.53585937 212.7890625 11.23046875 C208.82586832 15.15039661 205.72107491 15.2898549 200.44197083 15.26742554 C199.66509358 15.27195665 198.88821633 15.27648776 198.08779734 15.28115618 C195.47619626 15.29384889 192.86480241 15.29217667 190.25317383 15.29052734 C188.38395925 15.29650971 186.51474716 15.30331458 184.64553833 15.31088257 C179.56061709 15.3285832 174.47576313 15.33323976 169.39081407 15.33451414 C165.14646971 15.33641164 160.90214107 15.34376777 156.65780276 15.35085833 C146.64157072 15.36715663 136.62537464 15.37202611 126.60913086 15.37060547 C116.27938301 15.36940482 105.94984436 15.39048809 95.62014943 15.4220928 C86.75208676 15.44825797 77.88409237 15.4589726 69.01599139 15.45769465 C63.71944152 15.45718493 58.42307735 15.46287331 53.12656593 15.48405075 C48.14181303 15.50343616 43.15742282 15.50355542 38.17265701 15.48901749 C36.34575686 15.48692841 34.518834 15.49163615 32.69197273 15.5037384 C30.19187386 15.519224 27.69302033 15.50986154 25.19294739 15.49447632 C24.11621434 15.50990701 24.11621434 15.50990701 23.0177291 15.52564943 C16.2481004 15.43400437 9.99255386 12.57650771 5 8 C5 7.34 5 6.68 5 6 C4.01 5.67 3.02 5.34 2 5 C2 4.34 2 3.68 2 3 C1.34 3 0.68 3 0 3 C0 2.01 0 1.02 0 0 Z " fill="#FE4503" transform="translate(968,396)"/>
<path d="M0 0 C-0.33 3.96 -0.66 7.92 -1 12 C0.58582886 12.00364563 2.17165771 12.00729126 3.80554199 12.01104736 C18.75479111 12.04799799 33.70380093 12.10553527 48.65288544 12.18390274 C56.33825518 12.22366551 64.02352294 12.25607196 71.70898438 12.27099609 C78.40979791 12.28402702 85.11038679 12.31102815 91.81107378 12.35461307 C95.35714248 12.37719585 98.90293443 12.39291262 102.44908142 12.39188385 C106.41355055 12.39099603 110.37745649 12.42130607 114.34179688 12.45410156 C115.5099292 12.4490712 116.67806152 12.44404083 117.8815918 12.43885803 C124.66881925 12.52564905 129.27528453 13.2316936 135 17 C135.33 17.99 135.66 18.98 136 20 C62.08 20 -11.84 20 -88 20 C-87 7 -87 7 -85 1 C-74.21268697 0.86947489 -63.42537239 0.73907867 -52.6380558 0.60884857 C-47.62947132 0.54837825 -42.6208874 0.48786295 -37.61230469 0.42724609 C-32.78182474 0.36878637 -27.9513434 0.3104432 -23.12086105 0.25218201 C-21.27481409 0.22989584 -19.42876764 0.20756715 -17.58272171 0.18519592 C-15.00387961 0.15395149 -12.42503575 0.12285608 -9.84619141 0.09179688 C-8.69281029 0.07777077 -8.69281029 0.07777077 -7.51612854 0.0634613 C-2.22810432 0 -2.22810432 0 0 0 Z " fill="#FE4503" transform="translate(1054,321)"/>
<path d="M0 0 C0.77338431 0.00092179 1.54676863 0.00184359 2.34358883 0.00279331 C3.22844967 0.00141865 4.11331051 0.00004398 5.02498531 -0.00137234 C6.00321758 0.00222294 6.98144985 0.00581821 7.98932552 0.00952244 C9.01359646 0.00937641 10.03786739 0.00923038 11.09317684 0.00907993 C14.49665055 0.00977955 17.9000703 0.0175742 21.30353451 0.02539158 C23.65623094 0.02725559 26.00892776 0.02867957 28.36162472 0.0296793 C34.56769531 0.03350584 40.77374266 0.04333728 46.97980404 0.05438328 C53.30711204 0.06459448 59.63442378 0.06917629 65.96173763 0.0742197 C78.38687807 0.08495942 90.81200124 0.10203747 103.23712826 0.12304783 C103.09334482 2.10236447 102.94698051 4.08149367 102.79962826 6.06054783 C102.67781185 7.71377048 102.67781185 7.71377048 102.55353451 9.40039158 C102.19245902 13.64860072 101.70795597 17.8855984 101.23712826 22.12304783 C66.25712826 22.12304783 31.27712826 22.12304783 -4.76287174 22.12304783 C-3.07762322 0.21481702 -3.07762322 0.21481702 0 0 Z " fill="#FE4503" transform="translate(188.76287174224854,270.8769521713257)"/>
<path d="M0 0 C34.65 0 69.3 0 105 0 C105 11 105 11 103 21 C68.02 21 33.04 21 -3 21 C-1 2 -1 2 0 0 Z " fill="#FE4503" transform="translate(183,296)"/>
<path d="M0 0 C28.05 0 56.1 0 85 0 C85.89098086 4.45490431 86.00316069 6.17667014 85.125 10.375 C84.26126282 14.59636338 83.61284477 18.71008659 83 23 C54.95 23 26.9 23 -2 23 C-2 11.79166667 -2 11.79166667 -1 7.5625 C-0.37875553 4.87475484 0 2.77949545 0 0 Z " fill="#FE4503" transform="translate(642,247)"/>
<path d="M0 0 C28.05 0 56.1 0 85 0 C84.23067615 7.6932385 83.17564669 15.35829648 82 23 C53.95 23 25.9 23 -3 23 C-3 12.82481752 -3 12.82481752 -2.0625 7.5625 C-1.80146484 6.04849609 -1.80146484 6.04849609 -1.53515625 4.50390625 C-1 2 -1 2 0 0 Z " fill="#FE4503" transform="translate(781,247)"/>
<path d="M0 0 C28.05 0 56.1 0 85 0 C85 9 85 9 83 22 C54.95 22 26.9 22 -2 22 C-2 14 -2 14 0 0 Z " fill="#FE4503" transform="translate(639,271)"/>
<path d="M0 0 C28.05 0 56.1 0 85 0 C85 11.35384615 85 11.35384615 84.5625 15.5 C84.44068359 16.72203125 84.44068359 16.72203125 84.31640625 17.96875 C84 20 84 20 83 22 C54.95 22 26.9 22 -2 22 C-2 17.80210898 -1.9923864 13.98868217 -1.5625 9.875 C-1.48128906 9.06804687 -1.40007813 8.26109375 -1.31640625 7.4296875 C-0.99161488 4.93561059 -0.49325875 2.46629376 0 0 Z " fill="#FE4503" transform="translate(777,271)"/>
<path d="M0 0 C28.05 0 56.1 0 85 0 C83 18 83 18 82 21 C53.95 21 25.9 21 -3 21 C-2.505 16.545 -2.505 16.545 -2 12 C-1.75181233 9.35611191 -1.5130815 6.71176927 -1.28125 4.06640625 C-1 2 -1 2 0 0 Z " fill="#FE4503" transform="translate(636,296)"/>
<path d="M0 0 C28.05 0 56.1 0 85 0 C85 9 85 9 82 21 C53.95 21 25.9 21 -3 21 C-2.12294198 13.98353585 -1.07520666 6.9888433 0 0 Z " fill="#FE4503" transform="translate(774,296)"/>
<path d="M0 0 C0.18175781 1.24394531 0.36351562 2.48789063 0.55078125 3.76953125 C1.72251833 11.59739684 2.9118976 19.24637918 5.171875 26.84375 C6.38833302 31.48006172 7.2836215 36.16908023 8.1875 40.875 C8.45614868 42.25051025 8.45614868 42.25051025 8.73022461 43.65380859 C8.97784546 44.96599365 8.97784546 44.96599365 9.23046875 46.3046875 C9.37895264 47.08827637 9.52743652 47.87186523 9.68041992 48.67919922 C10.02019212 51.14663579 10.05422207 53.51239041 10 56 C5.96478262 55.35042842 3.03520136 53.29512814 -0.375 51.125 C-4.49809278 48.5082362 -8.5966186 46.11521946 -13 44 C-13 43.34 -13 42.68 -13 42 C-14.11375 41.814375 -14.11375 41.814375 -15.25 41.625 C-17.80141485 41.04513299 -19.7267573 40.26291261 -22 39 C-22 38.34 -22 37.68 -22 37 C-22.515625 36.9175 -23.03125 36.835 -23.5625 36.75 C-27.04455732 35.67859775 -29.87200885 33.86476395 -33 32 C-33 31.34 -33 30.68 -33 30 C-33.85207031 29.75378906 -34.70414063 29.50757812 -35.58203125 29.25390625 C-39.92146478 27.66195406 -43.53115293 25.32040136 -47.40820312 22.83398438 C-49.9365739 21.23041041 -52.14397002 19.95200999 -55 19 C-55 17.68 -55 16.36 -55 15 C-33.31802061 7.94727926 -33.31802061 7.94727926 -24.08203125 5.82421875 C-18.98400116 4.46086723 -14.01638663 2.67710077 -9.05175781 0.89233398 C-3.3223812 -1.1074604 -3.3223812 -1.1074604 0 0 Z " fill="#35A854" transform="translate(696,73)"/>
<path d="M0 0 C0.66 0.33 1.32 0.66 2 1 C4.15471151 7.94894463 5.27030875 15.24024049 6.39453125 22.41796875 C6.89010983 25.34987558 7.43452389 28.2594007 8.01171875 31.17578125 C8.19420166 32.10261719 8.37668457 33.02945313 8.56469727 33.984375 C8.9309617 35.83309272 9.30233165 37.68080819 9.67944336 39.52734375 C10.65066721 44.45470753 11.20554027 48.97796607 11 54 C0.54126333 57.61379113 -9.98909278 61.00800265 -20.56610107 64.25857544 C-21.88668643 64.66633024 -23.20593706 65.07843568 -24.52374268 65.49508667 C-31.87924653 67.81546905 -38.26579525 69.55424269 -46 69 C-42.38658969 63.29568372 -38.74564703 57.61847054 -35 52 C-33.89431599 50.25095829 -32.79033376 48.50084029 -31.6875 46.75 C-28.86525209 42.30391094 -25.92781874 37.96651233 -22.88671875 33.66796875 C-17.13216088 25.53057118 -11.49692464 17.31353065 -6 9 C-4.87559657 7.31210244 -3.75060542 5.62459623 -2.625 3.9375 C-2.12226562 3.18339844 -1.61953125 2.42929687 -1.1015625 1.65234375 C-0.73804688 1.10707031 -0.37453125 0.56179687 0 0 Z " fill="#4485F1" transform="translate(683,17)"/>
<path d="M0 0 C29.04 0 58.08 0 88 0 C92 14 92 14 92 19 C62.63 19 33.26 19 3 19 C2.34 15.7 1.68 12.4 1 9 C0.67 8.67 0.34 8.34 0 8 C0 5.36 0 2.72 0 0 Z " fill="#FE4503" transform="translate(456,322)"/>
<path d="M0 0 C3.98539173 0.67732027 7.19143736 2.66945155 10.625 4.6875 C11.24818115 5.04908203 11.8713623 5.41066406 12.51342773 5.78320312 C14.34594817 6.84936253 16.17387856 7.92292413 18 9 C18.88558594 9.52207031 19.77117188 10.04414063 20.68359375 10.58203125 C25.27682169 13.31986662 29.82638838 16.12631773 34.375 18.9375 C43.44831164 24.53092976 52.65276669 29.87790498 62 35 C62 35.66 62 36.32 62 37 C62.66 37 63.32 37 64 37 C64 37.99 64 38.98 64 40 C53.89256351 42.99381474 43.77388801 45.94495047 33.6328125 48.82299805 C29.62314505 49.96112787 25.61742786 51.10732813 21.625 52.3046875 C20.366875 52.67851563 19.10875 53.05234375 17.8125 53.4375 C16.72582031 53.76621094 15.63914062 54.09492187 14.51953125 54.43359375 C12 55 12 55 10 54 C9.3125602 51.26586441 8.75335027 48.58254325 8.25 45.8125 C7.90703651 44.00636089 7.56322949 42.20038183 7.21875 40.39453125 C7.02925781 39.38986816 6.83976563 38.38520508 6.64453125 37.35009766 C5.92437099 33.60690104 5.16900079 29.87140435 4.40625 26.13671875 C4.12983108 24.77824946 3.85346396 23.41976962 3.57714844 22.0612793 C3.16497691 20.03537666 2.75198464 18.00966318 2.33605957 15.98452759 C1.94433524 14.07376565 1.55800697 12.16189991 1.171875 10.25 C0.9459668 9.14140625 0.72005859 8.0328125 0.48730469 6.890625 C0 4 0 4 0 0 Z " fill="#E84336" transform="translate(688,15)"/>
<path d="M0 0 C30.03 0 60.06 0 91 0 C95 15 95 15 94 18 C64.3 18 34.6 18 4 18 C1 10 1 10 0 0 Z " fill="#FE4503" transform="translate(460,347)"/>
<path d="M0 0 C0.05536025 1.64542964 0.09338848 3.29144284 0.125 4.9375 C0.14820313 5.85402344 0.17140625 6.77054687 0.1953125 7.71484375 C0 11 0 11 -2 20 C-30.38 20 -58.76 20 -88 20 C-86 3 -86 3 -85 1 C-74.21268697 0.86947489 -63.42537239 0.73907867 -52.6380558 0.60884857 C-47.62947132 0.54837825 -42.6208874 0.48786295 -37.61230469 0.42724609 C-32.78182474 0.36878637 -27.9513434 0.3104432 -23.12086105 0.25218201 C-21.27481409 0.22989584 -19.42876764 0.20756715 -17.58272171 0.18519592 C-15.00387961 0.15395149 -12.42503575 0.12285608 -9.84619141 0.09179688 C-8.69281029 0.07777077 -8.69281029 0.07777077 -7.51612854 0.0634613 C-2.22810432 0 -2.22810432 0 0 0 Z " fill="#FE4503" transform="translate(424,321)"/>
<path d="M0 0 C-0.30944701 2.58373234 -0.62243957 5.16695133 -0.9375 7.75 C-1.02451172 8.47960937 -1.11152344 9.20921875 -1.20117188 9.9609375 C-1.62255612 13.39443878 -2.15935118 16.63740472 -3 20 C-31.05 20 -59.1 20 -88 20 C-87 6 -87 6 -85 1 C-74.21268697 0.86947489 -63.42537239 0.73907867 -52.6380558 0.60884857 C-47.62947132 0.54837825 -42.6208874 0.48786295 -37.61230469 0.42724609 C-32.78182474 0.36878637 -27.9513434 0.3104432 -23.12086105 0.25218201 C-21.27481409 0.22989584 -19.42876764 0.20756715 -17.58272171 0.18519592 C-15.00387961 0.15395149 -12.42503575 0.12285608 -9.84619141 0.09179688 C-8.69281029 0.07777077 -8.69281029 0.07777077 -7.51612854 0.0634613 C-2.22810432 0 -2.22810432 0 0 0 Z " fill="#FE4503" transform="translate(856,321)"/>
<path d="M0 0 C-0.31073024 2.22941405 -0.62365625 4.45852212 -0.9375 6.6875 C-1.11152344 7.92886719 -1.28554688 9.17023438 -1.46484375 10.44921875 C-1.89641516 13.31271079 -2.4320807 16.16040352 -3 19 C-31.05 19 -59.1 19 -88 19 C-87 5 -87 5 -85 0 C-74.21276246 -0.15365972 -63.42546508 -0.30184149 -52.6380558 -0.4429636 C-47.62943009 -0.50866059 -42.62084515 -0.57626875 -37.61230469 -0.64819336 C-32.78187547 -0.71749075 -27.95140369 -0.78183492 -23.12086105 -0.84269524 C-21.27479009 -0.86683424 -19.42874187 -0.89278031 -17.58272171 -0.92053413 C-15.00391448 -0.95900105 -12.42510232 -0.99113352 -9.84619141 -1.02172852 C-8.69281029 -1.04114754 -8.69281029 -1.04114754 -7.51612854 -1.06095886 C-2.22810432 -1.11405216 -2.22810432 -1.11405216 0 0 Z " fill="#FE4503" transform="translate(718,322)"/>
<path d="M0 0 C28.38 0 56.76 0 86 0 C85.34 5.61 84.68 11.22 84 17 C80.86002332 18.56998834 77.50823639 18.12944545 74.06201172 18.11352539 C73.24241974 18.11367142 72.42282776 18.11381744 71.57839966 18.1139679 C68.8621356 18.11326974 66.14593962 18.10548188 63.4296875 18.09765625 C61.54924558 18.09579173 59.66880317 18.09436798 57.7883606 18.09336853 C52.83338078 18.08954607 47.87843017 18.07971808 42.92346191 18.06866455 C37.86955155 18.05844461 32.81563647 18.05386966 27.76171875 18.04882812 C17.84113092 18.03809558 7.92057246 18.02050096 -2 18 C-1.34 12.06 -0.68 6.12 0 0 Z " fill="#FE4503" transform="translate(335,347)"/>
<path d="M0 0 C28.05 0 56.1 0 85 0 C84 13 84 13 82 18 C54.28 18 26.56 18 -2 18 C-2 7 -2 7 0 0 Z " fill="#FE4503" transform="translate(629,347)"/>
<path d="M0 0 C28.05 0 56.1 0 85 0 C84 14 84 14 82 18 C54.28 18 26.56 18 -2 18 C-1.34 12.06 -0.68 6.12 0 0 Z " fill="#FE4503" transform="translate(767,347)"/>
<path d="M0 0 C30.69 0 61.38 0 93 0 C93.99 3.3 94.98 6.6 96 10 C96.99 11.98 96.99 11.98 98 14 C98 14.99 98 15.98 98 17 C65.99 17 33.98 17 1 17 C0.67 11.39 0.34 5.78 0 0 Z " fill="#FE4503" transform="translate(465,372)"/>
<path d="M0 0 C28.38 0 56.76 0 86 0 C85.34 5.28 84.68 10.56 84 16 C40.935 16.495 40.935 16.495 -3 17 C-2.01 11.39 -1.02 5.78 0 0 Z " fill="#FE4503" transform="translate(332,372)"/>
<path d="M0 0 C28.05 0 56.1 0 85 0 C84 13 84 13 83 16 C40.43 16.495 40.43 16.495 -3 17 C-1 4 -1 4 0 0 Z " fill="#FE4503" transform="translate(764,372)"/>
<path d="M0 0 C28.38 0 56.76 0 86 0 C85.34 5.28 84.68 10.56 84 16 C41.43 16.495 41.43 16.495 -2 17 C-1.36990559 11.32915028 -0.70771089 5.6616871 0 0 Z " fill="#FE4503" transform="translate(625,372)"/>
<path d="M0 0 C31.35 0 62.7 0 95 0 C93.87055183 6.77668901 93.87055183 6.77668901 91.0625 10.3125 C90.53785156 10.98925781 90.01320313 11.66601562 89.47265625 12.36328125 C88 14 88 14 86 15 C83.66311229 15.11285667 81.32294361 15.15941876 78.98339844 15.17700195 C78.26122635 15.18357315 77.53905426 15.19014435 76.79499817 15.19691467 C74.39978942 15.21665981 72.00464346 15.22831399 69.609375 15.23828125 C68.79125587 15.24235678 67.97313675 15.2464323 67.13022614 15.25063133 C62.79857129 15.27149901 58.46694817 15.28579669 54.13525391 15.29516602 C49.66511788 15.30622142 45.19548089 15.34060892 40.72552109 15.38033772 C37.28535042 15.40651142 33.8452984 15.41485859 30.40503693 15.41844749 C28.75763841 15.42331291 27.11024518 15.43492571 25.46294403 15.45348549 C23.15295682 15.47789007 20.84425692 15.47690998 18.53417969 15.4699707 C17.22116882 15.47583694 15.90815796 15.48170319 14.55535889 15.48774719 C9.64114826 14.8135839 6.46427638 12.77415813 3.3203125 8.96484375 C2.92585938 8.29582031 2.53140625 7.62679688 2.125 6.9375 C1.51011719 5.93009766 1.51011719 5.93009766 0.8828125 4.90234375 C0 3 0 3 0 0 Z " fill="#FE4503" transform="translate(469,396)"/>
<path d="M0 0 C27.72 0 55.44 0 84 0 C83.04538657 4.77306713 82.45725683 6.16314954 79.5625 9.75 C78.94503906 10.52859375 78.32757812 11.3071875 77.69140625 12.109375 C76 14 76 14 74 15 C71.87230405 15.11743364 69.74091691 15.16981404 67.61010742 15.19287109 C66.95460403 15.20104858 66.29910065 15.20922607 65.62373352 15.21765137 C63.45098789 15.24249562 61.27830756 15.25901911 59.10546875 15.2734375 C58.36332941 15.27876118 57.62119007 15.28408485 56.85656166 15.28956985 C52.92806659 15.31629782 48.99960325 15.33567339 45.07104492 15.35009766 C41.01543293 15.36674106 36.96063429 15.41151587 32.9053297 15.4624691 C29.78517231 15.49614364 26.6652079 15.5076752 23.54488564 15.51332474 C22.05014139 15.52003724 20.55540985 15.5352596 19.06084251 15.55921555 C16.96591531 15.59087728 14.87318032 15.59090431 12.77807617 15.58349609 C10.99176033 15.59562637 10.99176033 15.59562637 9.1693573 15.60800171 C5.05744931 14.81918339 3.60832287 13.20256673 1 10 C-0.86790889 5.83965748 -1.12938114 4.51752454 0 0 Z " fill="#FE4503" transform="translate(761,396)"/>
<path d="M0 0 C27.72 0 55.44 0 84 0 C82.94385327 6.3368804 82.54575454 7.07412108 78 11 C77.25108994 11.69798203 76.50217987 12.39596405 75.73057556 13.11509705 C72.4063822 15.40977146 70.57048128 15.51136465 66.56079102 15.53344727 C64.63838341 15.55720177 64.63838341 15.55720177 62.67713928 15.58143616 C61.28605789 15.57759431 59.89497936 15.57255505 58.50390625 15.56640625 C57.06810605 15.571645 55.63230931 15.5779224 54.19651794 15.58518982 C51.19131241 15.59558277 48.18658069 15.59104959 45.18139648 15.57641602 C41.33989976 15.55923653 37.49989999 15.58271621 33.65857029 15.61790562 C30.69441412 15.63992233 27.73061375 15.63842794 24.76640129 15.6301403 C23.35068051 15.62932296 21.93493303 15.63614497 20.51928902 15.65091133 C8.08894054 15.76069394 8.08894054 15.76069394 4.17163086 12.61694336 C0.49253596 8.18341686 0 5.8181431 0 0 Z " fill="#FE4503" transform="translate(329,396)"/>
<path d="M0 0 C0.77251602 0.00359528 1.54503204 0.00719055 2.34095764 0.01089478 C3.55549622 0.01067574 3.55549622 0.01067574 4.79457092 0.01045227 C7.48380671 0.01115163 10.17297412 0.01894507 12.86219788 0.02676392 C14.72164878 0.02862802 16.58110018 0.03005196 18.44055176 0.03105164 C23.34458258 0.03487746 28.24858398 0.04470829 33.15260315 0.05575562 C38.15280255 0.06596836 43.15300669 0.07054896 48.1532135 0.07559204 C57.97158583 0.0863305 67.78993629 0.10340769 77.60829163 0.12442017 C78.10329163 1.60942017 78.10329163 1.60942017 78.60829163 3.12442017 C77.56922913 5.02676392 77.56922913 5.02676392 75.98329163 7.06192017 C75.22145569 8.06545532 75.22145569 8.06545532 74.44422913 9.08926392 C71.45176284 12.40644462 69.10377062 14.86638627 64.58647156 15.64581299 C63.46397003 15.65502777 62.34146851 15.66424255 61.18495178 15.67373657 C59.9065744 15.6928006 58.62819702 15.71186462 57.31108093 15.73150635 C55.92317087 15.7309834 54.53526076 15.72910885 53.14735413 15.72598267 C51.71394863 15.73376404 50.28054772 15.74243491 48.84715271 15.75195312 C45.84615621 15.76685284 42.84563034 15.76631448 39.84461975 15.75576782 C36.01199205 15.74418919 32.18130096 15.77801778 28.3489933 15.82445717 C25.38907239 15.85402743 22.42961263 15.85566266 19.46957016 15.84943771 C18.0574447 15.85045971 16.64529191 15.8608522 15.2333107 15.88106155 C2.85367789 16.03649434 2.85367789 16.03649434 -1.71836853 12.34854126 C-5.02099019 9.04005881 -5.77343698 5.6841717 -6.39170837 1.12442017 C-4.63731674 -0.62997146 -2.33673382 0.00459054 0 0 Z " fill="#FE4503" transform="translate(628.3917083740234,395.8755798339844)"/>
<path d="M0 0 C1.32 0 2.64 0 4 0 C4.12528076 0.66193359 4.25056152 1.32386719 4.37963867 2.00585938 C4.9800457 5.17099828 5.5832815 8.33558642 6.1875 11.5 C6.40946045 12.66297607 6.6314209 13.82595215 6.86010742 15.02416992 C8.61587774 24.15602701 10.48884021 33.25925508 12.4753418 42.34375 C12.67554932 43.27832031 12.87575684 44.21289062 13.08203125 45.17578125 C13.25968018 45.98958252 13.4373291 46.80338379 13.62036133 47.6418457 C14.02133893 50.13254835 14.06572311 52.4815465 14 55 C14.66 55 15.32 55 16 55 C15.96390625 56.12019531 15.9278125 57.24039063 15.890625 58.39453125 C15.89493257 63.30192837 16.76551944 67.89427627 17.75 72.6875 C18.11466779 74.53383749 18.47924841 76.38019219 18.84375 78.2265625 C19.03324219 79.17176758 19.22273437 80.11697266 19.41796875 81.09082031 C20.38229128 85.91081499 21.31844547 90.73608384 22.25 95.5625 C22.51248535 96.89124146 22.51248535 96.89124146 22.78027344 98.24682617 C22.94043945 99.0741626 23.10060547 99.90149902 23.265625 100.75390625 C23.40774414 101.47908447 23.54986328 102.2042627 23.69628906 102.95141602 C24 105 24 105 24 109 C25.485 109.495 25.485 109.495 27 110 C27 110.99 27 111.98 27 113 C24.525 113.99 24.525 113.99 22 115 C21.82871582 114.09233887 21.65743164 113.18467773 21.48095703 112.24951172 C20.83940596 108.86068387 20.19413614 105.47260725 19.54638672 102.08496094 C19.26756414 100.62267704 18.99019763 99.16011467 18.71435547 97.69726562 C18.31606649 95.58647782 17.91243479 93.47676926 17.5078125 91.3671875 C17.26691895 90.09987793 17.02602539 88.83256836 16.77783203 87.52685547 C16.07063116 84.02822151 16.07063116 84.02822151 14.9453125 80.8359375 C14.07654486 78.22963459 13.62825284 75.980351 13.3671875 73.2578125 C13.28339844 72.41992188 13.19960938 71.58203125 13.11328125 70.71875 C13.03464844 69.8628125 12.95601562 69.006875 12.875 68.125 C12.78863281 67.24585937 12.70226562 66.36671875 12.61328125 65.4609375 C12.40265693 63.30788892 12.20047292 61.15401751 12 59 C11.01 58.67 10.02 58.34 9 58 C9.04898438 56.92234375 9.09796875 55.8446875 9.1484375 54.734375 C9.14595064 49.07924624 7.85687203 43.74497975 6.625 38.25 C5.05287873 31.10233237 3.60199297 23.97221442 2.44897461 16.74365234 C1.43759409 9.15962181 1.43759409 9.15962181 -1 2 C-0.67 1.34 -0.34 0.68 0 0 Z " fill="#F0F0E3" transform="translate(684,14)"/>
<path d="M0 0 C1.32 0 2.64 0 4 0 C10.22912399 29.51274277 10.22912399 29.51274277 10 42 C9.01 41.67 8.02 41.34 7 41 C5.35046145 32.95025186 3.78590557 24.9122643 2.46875 16.80078125 C1.44213806 9.18828297 1.44213806 9.18828297 -1 2 C-0.67 1.34 -0.34 0.68 0 0 Z " fill="#F3F1F3" transform="translate(684,14)"/>
<path d="M0 0 C1.9385469 2.90782034 2.44091468 4.37674287 3.0703125 7.7109375 C3.24433594 8.62617187 3.41835938 9.54140625 3.59765625 10.484375 C3.77167969 11.43828125 3.94570313 12.3921875 4.125 13.375 C4.30675781 14.32117187 4.48851562 15.26734375 4.67578125 16.2421875 C5.48430684 20.570535 6.101473 24.58346152 6 29 C5.67 27.68 5.34 26.36 5 25 C4.34 25 3.68 25 3 25 C3 26.98 3 28.96 3 31 C2.67 31 2.34 31 2 31 C1.34 25.72 0.68 20.44 0 15 C0.33 15 0.66 15 1 15 C0.67 10.05 0.34 5.1 0 0 Z " fill="#ECDBDC" transform="translate(692,40)"/>
<path d="M0 0 C0.66 0 1.32 0 2 0 C0.77646425 5.30198825 -1.89695471 8.61694317 -5.24609375 12.7421875 C-7.5281293 15.67986355 -9.25545636 18.72025796 -11 22 C-11.33 21.01 -11.66 20.02 -12 19 C-10.47585007 16.40865032 -8.91984136 14.00746893 -7.1875 11.5625 C-6.26233273 10.23185027 -5.33909396 8.89985723 -4.41796875 7.56640625 C-4.00313232 6.97802979 -3.5882959 6.38965332 -3.16088867 5.78344727 C-1.94570342 3.91658537 -0.95943475 2.0085492 0 0 Z " fill="#EFB71D" transform="translate(725,98)"/>
<path d="M0 0 C0.6875 1.8125 0.6875 1.8125 1 4 C0.01003509 5.00993538 -0.9916522 6.00841808 -2 7 C-3.08578173 9.01588152 -4.00351524 11.07036534 -4.9375 13.16015625 C-6 15 -6 15 -9 17 C-9 12.44089453 -8.25418363 11.49494642 -5.625 7.9375 C-4.68527344 6.65166016 -4.68527344 6.65166016 -3.7265625 5.33984375 C-3.15679688 4.56769531 -2.58703125 3.79554687 -2 3 C-1.34 2.01 -0.68 1.02 0 0 Z " fill="#4D84E9" transform="translate(664,45)"/>
<path d="M0 0 C0.33 0.99 0.66 1.98 1 3 C-2.26760563 8.63380282 -2.26760563 8.63380282 -5 10 C-6.0409066 11.64142963 -7.04504326 13.30712215 -8 15 C-8.33 14.34 -8.66 13.68 -9 13 C-6.09700957 8.59175527 -3.08418637 4.28359219 0 0 Z " fill="#5584DF" transform="translate(653,62)"/>
<path d="M0 0 C0.99 0 1.98 0 3 0 C2.690625 0.763125 2.38125 1.52625 2.0625 2.3125 C1.32106407 4.18789677 0.63771783 6.08684652 0 8 C-0.66 8 -1.32 8 -2 8 C-2.28875 8.639375 -2.5775 9.27875 -2.875 9.9375 C-4 12 -4 12 -6 13 C-5.04476793 10.35474197 -4.14300693 8.18876915 -2.4375 5.9375 C-0.94296201 3.92312271 -0.43661788 2.44506011 0 0 Z " fill="#DEB133" transform="translate(753,55)"/>
<path d="M0 0 C0.99 0.495 0.99 0.495 2 1 C2.96070434 3.88211302 3.10581883 5.69850044 3.0625 8.6875 C3.05347656 9.49574219 3.04445313 10.30398437 3.03515625 11.13671875 C3.02355469 11.75160156 3.01195312 12.36648437 3 13 C2.34 13 1.68 13 1 13 C0.67 8.71 0.34 4.42 0 0 Z " fill="#F6F9F6" transform="translate(699,85)"/>
<path d="M0 0 C0.33 0 0.66 0 1 0 C1.33 2.97 1.66 5.94 2 9 C1.67 9 1.34 9 1 9 C1 11.97 1 14.94 1 18 C-2.22395275 13.16407087 -1.28671404 8.04283751 -0.5 2.4375 C-0.335 1.633125 -0.17 0.82875 0 0 Z " fill="#CDE0CB" transform="translate(699,77)"/>
<path d="M0 0 C0.66 0 1.32 0 2 0 C2.33 3.3 2.66 6.6 3 10 C2.01 9.67 1.02 9.34 0 9 C0 6.03 0 3.06 0 0 Z " fill="#F4F6FB" transform="translate(691,46)"/>
<path d="M0 0 C0.99 0.33 1.98 0.66 3 1 C3 1.99 3 2.98 3 4 C1.35 4.66 -0.3 5.32 -2 6 C-2 4.68 -2 3.36 -2 2 C-1.34 2 -0.68 2 0 2 C0 1.34 0 0.68 0 0 Z " fill="#E9D3C5" transform="translate(708,123)"/>
<path d="M0 0 C0.66 1.32 1.32 2.64 2 4 C0.68 4.99 -0.64 5.98 -2 7 C-2 3 -2 3 0 0 Z " fill="#5679D6" transform="translate(657,55)"/>
<path d="M0 0 C0.99 0.495 0.99 0.495 2 1 C1.01 1.495 1.01 1.495 0 2 C0 1.34 0 0.68 0 0 Z " fill="#E2C6C6" transform="translate(711,124)"/>
<path d="M0 0 C2 1 2 1 2 1 Z " fill="#FF0000" transform="translate(678,122)"/>
<path d="" fill="#FF0000" transform="translate(0,0)"/>
</svg>
